<svg xmlns="http://www.w3.org/2000/svg" viewBox="0 0 127.9 127.5">
<path d="M63.1,0.1c18.4,0,33.7,6.1,46.1,18.4c12.4,12.3,18.6,27.3,18.6,45.2c0,17.7-6.2,32.8-18.5,45.2
	c-12.3,12.4-27.4,18.5-45.2,18.5c-18,0-33.2-6.2-45.5-18.5C6.2,96.7,0.1,81.8,0.1,64.3c0-11.6,2.8-22.4,8.5-32.4
	C14.1,22,21.8,14.2,31.6,8.5C41.3,2.9,51.8,0.1,63.1,0.1z M63.7,11.9c-9,0-17.5,2.3-25.5,7s-14.3,11-18.8,18.9
	c-4.5,7.9-6.8,16.7-6.8,26.5c0,14.4,5,26.6,15,36.5c10,9.9,22,14.9,36.1,14.9c9.4,0,18.1-2.3,26.1-6.8c8-4.6,14.3-10.8,18.7-18.7
	s6.7-16.7,6.7-26.4c0-9.6-2.2-18.3-6.7-26.1s-10.8-14-18.9-18.7C81.5,14.2,72.8,11.9,63.7,11.9z"/>
<path d="M7.3,63.7c0,27.8,16.1,52.4,55.1,52.4c2.5,0-48,1-48-52.3c0-23.2,15.7-42.7,35-42.7c7.6,0,16.7,3.3,16.7,11.9
	c0,0.4,0.4,4.5-2.3,4.5c-3.2,0-5.6-3.5-11-3.5C40,34,40.5,47.2,40.5,48.4C40.5,62,54,63.7,60.5,63.7c22.1,0,24.3-20.7,24.3-26.6
	c0-15.7-12.4-25.9-19.7-25.9C15.4,11.2,7.3,63.7,7.3,63.7z"/>
</svg>
